<?xml version="1.0" encoding="utf-8"?>
<!-- Generator: Adobe Illustrator 19.1.1, SVG Export Plug-In . SVG Version: 6.00 Build 0)  -->
<svg version="1.1" id="Layer_1" xmlns="http://www.w3.org/2000/svg" xmlns:xlink="http://www.w3.org/1999/xlink" x="0px" y="0px"
	 viewBox="0 0 166 33" style="enable-background:new 0 0 166 33;" xml:space="preserve">
<style type="text/css">
	.st0{fill:#EB1E1E;}
</style>
<g>
	<g>
		<path class="st0" d="M23.1,19.2l5.8-4.9c0.6-0.6,1-1.4,1-2.4c0-1.5-1-2.7-2.3-3.1l0,0l0,0l0,0L6.2,1.6C5.8,1.5,5.3,1.4,4.9,1.4
			C2.8,1.4,1.1,3.1,1,5.2c0,0.1,0,0.3,0,0.3V27c0,0,0,0,0,0c0,0,0,0,0,0c0,0.5,0.4,0.9,0.9,0.9c0.2,0,0.4-0.1,0.6-0.2h0l5.3-4.2V9
			l13,4.3l-6.3,4.9l9.7,13.3h7.9L23.1,19.2z"/>
	</g>
	<g>
		<path class="st0" d="M97.1,12.3h-3.7H89v19.2h4.5v-7.4h3.7c3,0,6.2-2.5,6.2-5.9C103.4,14,100.2,12.3,97.1,12.3 M95.7,21.7h-2.3
			v-3.5v-3.5h2.3c1.3,0,3.1,1.1,3.1,3.5C98.8,20.6,97.1,21.7,95.7,21.7"/>
	</g>
	<g>
		<path class="st0" d="M80.2,12.3h-3.7H72v19.2h4.5v-7.4h3.7c3,0,6.2-2.5,6.2-5.9C86.4,14,83.2,12.3,80.2,12.3 M78.8,21.7h-2.3v-3.5
			v-3.5h2.3c1.3,0,3.1,1.1,3.1,3.5C81.9,20.6,80.1,21.7,78.8,21.7"/>
	</g>
	<g>
		<path class="st0" d="M64,23.4c0,1.7-0.3,3.6-1,4.6c-0.7,1-1.8,1.4-3.3,1.4c-1.5,0-2.6-0.5-3.3-1.4c-0.7-0.9-1-2.8-1-4.6V12.3h-4.7
			v12.3c0,2.5,1,4.4,2.4,5.5c1.4,1.2,3.8,1.8,6.5,1.8c2.7,0,5.1-0.6,6.5-1.8c1.4-1.2,2.3-3,2.3-5.5V12.3H64V23.4z"/>
	</g>
	<g>
		<path class="st0" d="M122.2,14.7c-0.8-0.9-2-1.6-3.1-2c-1.2-0.5-2.5-0.7-4-0.7c-3,0-5.7,0.9-7.3,2.7c-1.6,1.8-2.4,4.2-2.4,7.2
			c0,3,0.8,5.5,2.4,7.3c1.6,1.8,4.3,2.7,7.3,2.7c1.5,0,3-0.2,4.2-0.7c1.2-0.5,2.3-1.2,3.1-2.1c0.8-0.9,1.4-2,1.8-3.2
			c0.4-1.2,0.6-2.6,0.6-4c0-1.4-0.2-2.8-0.6-4C123.7,16.6,122.9,15.6,122.2,14.7 M115,29.3c-1.3,0-5.4-0.9-5.4-7.4
			c0-6.2,3.7-7.5,5.4-7.5c1.8,0,5.4,1.3,5.4,7.5C120.5,28.4,116.9,29.3,115,29.3"/>
	</g>
	<g>
		<polygon class="st0" points="143.8,12.3 143.8,14.9 149.3,14.9 149.3,31.5 154.1,31.5 154.1,14.9 159.7,14.9 159.7,12.3 		"/>
	</g>
	<g>
		<path class="st0" d="M45.9,22.3c-1.9-1.3-3.4-2.4-4.5-3.1c-1.3-0.9-2-1.7-2-2.4c0-0.8,0.4-1.6,1.1-1.9c0.4-0.2,1.2-0.2,2.1-0.2
			h5.1v-2.4c-2.4-0.3-3.9-0.4-5.6-0.4c-5,0-7.5,1.6-7.5,4.9c0,1.7,0.8,3.2,2.4,4.4c1.4,1,2.9,2.1,4.6,3.3c1.3,0.8,1.9,2,1.9,2.8
			c0,1.3-1.1,1.9-3.4,1.9h-3.5h-2.1h-0.8l1.7,2.3c1.2,0.2,2.9,0.4,4.5,0.4c5.2,0,8.5-1.5,8.5-4.8C48.4,25.1,47.5,23.6,45.9,22.3z"/>
	</g>
	<g>
		<path class="st0" d="M138.5,23c0.3-0.1,0.7-0.2,0.9-0.4c1.5-0.8,2.6-2.3,2.6-4.4c0-4.2-3.1-5.9-6.2-5.9H132h-4.5v19.2h4.5v-7.7
			l0,0v-2.9v-1v-1.7v-3.5h2.3c1.3,0,3.1,1.2,3.1,3.5c0,2.4-1.7,2.7-3.1,2.7h-0.9v1.7l6.5,8.9h4.9L138.5,23z"/>
	</g>
</g>
</svg>
